<svg width="1822" height="899" viewBox="0 0 1822 899" fill="none" xmlns="http://www.w3.org/2000/svg">
<path d="M217.459 41.1799V10" stroke="#732E54" stroke-width="18.0753" stroke-miterlimit="10" stroke-linecap="round"/>
<path d="M91.8418 43.5293L110.007 66.0331" stroke="#732E54" stroke-width="18.0753" stroke-miterlimit="10" stroke-linecap="round"/>
<path d="M343.898 43.5293L325.822 66.0331" stroke="#732E54" stroke-width="18.0753" stroke-miterlimit="10" stroke-linecap="round"/>
<path opacity="0.8" d="M488.231 288.27L306.845 406.211C301.549 409.126 295.345 409.921 289.485 408.437C283.625 406.954 278.547 403.301 275.276 398.217C272.006 393.134 270.787 386.998 271.865 381.05C272.944 375.102 276.24 369.786 281.088 366.175L461.841 248.233C464.47 246.524 467.41 245.349 470.492 244.776C473.575 244.204 476.741 244.243 479.808 244.894C482.875 245.544 485.785 246.792 488.37 248.567C490.955 250.342 493.165 252.608 494.874 255.237C496.583 257.866 497.757 260.806 498.33 263.889C498.903 266.971 498.863 270.137 498.213 273.204C497.563 276.272 496.314 279.181 494.54 281.766C492.765 284.351 490.498 286.561 487.87 288.27H488.231Z" fill="#389BF3"/>
<path opacity="0.8" d="M245.843 445.887L124.557 525.147C121.928 526.856 118.989 528.031 115.906 528.604C112.823 529.176 109.658 529.137 106.59 528.486C100.396 527.173 94.9762 523.452 91.5246 518.143C88.073 512.834 86.8719 506.371 88.1854 500.176C89.499 493.981 93.2196 488.562 98.5288 485.11L219.814 405.85C225.123 402.398 231.586 401.197 237.781 402.511C243.976 403.824 249.395 407.545 252.847 412.854C256.299 418.163 257.5 424.626 256.186 430.821C254.873 437.016 251.152 442.435 245.843 445.887Z" fill="#FF9D23"/>
<path d="M403.097 260.615L221.711 378.105C219.083 379.814 216.143 380.988 213.06 381.561C209.977 382.134 206.812 382.094 203.745 381.444C200.677 380.794 197.768 379.545 195.183 377.771C192.598 375.996 190.388 373.729 188.679 371.101C186.97 368.472 185.795 365.532 185.222 362.449C184.649 359.366 184.689 356.201 185.34 353.134C185.99 350.066 187.238 347.157 189.013 344.572C190.788 341.987 193.054 339.777 195.683 338.068L376.979 220.488C382.298 217.244 388.671 216.201 394.747 217.579C400.822 218.958 406.121 222.649 409.52 227.871C412.918 233.092 414.149 239.432 412.95 245.545C411.751 251.659 408.217 257.064 403.097 260.615Z" fill="#AA7DFF"/>
<path d="M160.614 418.14L39.419 497.039C34.1 500.282 27.7265 501.326 21.651 499.947C15.5754 498.569 10.2761 494.877 6.8776 489.656C3.47906 484.435 2.2488 478.095 3.44789 471.981C4.64698 465.868 8.18104 460.462 13.3001 456.912L134.586 378.103C137.214 376.394 140.154 375.22 143.237 374.647C146.32 374.074 149.485 374.114 152.553 374.764C155.62 375.414 158.529 376.663 161.114 378.437C163.699 380.212 165.909 382.478 167.618 385.107C169.327 387.736 170.502 390.676 171.075 393.759C171.648 396.841 171.608 400.007 170.957 403.074C170.307 406.142 169.059 409.051 167.284 411.636C165.509 414.221 163.243 416.431 160.614 418.14Z" fill="#389BF3"/>
<path d="M457.776 225.007L456.692 225.73C454.063 227.445 451.122 228.625 448.037 229.204C444.952 229.782 441.783 229.747 438.711 229.101C435.64 228.455 432.726 227.21 430.135 225.437C427.545 223.665 425.329 221.4 423.614 218.771C421.899 216.142 420.718 213.201 420.14 210.116C419.561 207.031 419.596 203.862 420.242 200.791C420.889 197.719 422.134 194.805 423.906 192.214C425.678 189.624 427.944 187.408 430.573 185.693L431.748 184.97C437.057 181.518 443.52 180.317 449.715 181.631C455.909 182.944 461.329 186.665 464.78 191.974C468.232 197.283 469.433 203.746 468.119 209.941C466.806 216.136 463.085 221.555 457.776 225.007Z" fill="#FF9D23"/>
<path opacity="0.5" d="M479.01 377.38L297.624 495.322C292.34 498.037 286.232 498.683 280.497 497.134C274.762 495.585 269.81 491.952 266.612 486.945C263.414 481.938 262.198 475.919 263.203 470.063C264.209 464.208 267.362 458.938 272.047 455.285L452.801 337.343C458.11 333.892 464.573 332.691 470.767 334.004C476.962 335.318 482.382 339.038 485.833 344.348C489.285 349.657 490.486 356.12 489.172 362.315C487.859 368.509 484.138 373.929 478.829 377.38H479.01Z" fill="#389BF3"/>
<path opacity="0.5" d="M236.62 534.999L115.335 613.807C112.706 615.516 109.766 616.691 106.683 617.264C103.6 617.837 100.435 617.797 97.3676 617.147C94.3002 616.496 91.391 615.248 88.806 613.473C86.221 611.699 84.0109 609.432 82.3019 606.803C80.5928 604.174 79.4183 601.235 78.8453 598.152C78.2724 595.069 78.3123 591.904 78.9627 588.836C80.2762 582.641 83.9968 577.222 89.3061 573.771L210.592 494.962C215.901 491.511 222.364 490.309 228.558 491.623C234.753 492.936 240.173 496.657 243.624 501.966C247.076 507.276 248.277 513.738 246.963 519.933C245.65 526.128 241.929 531.547 236.62 534.999Z" fill="#AA7DFF"/>
<path opacity="0.5" d="M534.138 341.863L533.053 342.586C530.424 344.295 527.485 345.47 524.402 346.043C521.319 346.616 518.154 346.576 515.086 345.925C512.019 345.275 509.11 344.027 506.525 342.252C503.94 340.477 501.73 338.211 500.021 335.582C498.312 332.953 497.137 330.013 496.564 326.931C495.991 323.848 496.031 320.682 496.681 317.615C497.332 314.548 498.58 311.638 500.355 309.053C502.129 306.468 504.396 304.258 507.025 302.549L508.109 301.826C510.738 300.117 513.678 298.943 516.761 298.37C519.843 297.797 523.009 297.837 526.076 298.487C529.144 299.137 532.053 300.386 534.638 302.16C537.223 303.935 539.433 306.202 541.142 308.83C542.851 311.459 544.026 314.399 544.599 317.482C545.171 320.565 545.132 323.73 544.481 326.797C543.831 329.865 542.583 332.774 540.808 335.359C539.033 337.944 536.767 340.154 534.138 341.863Z" fill="#FF9D23"/>
<path d="M60.4768 341.773C71.8642 368.886 89.3973 392.926 104.038 418.503C118.679 444.079 131.151 472.729 129.434 501.92H301.15C299.794 472.458 311.814 444.079 326.455 418.503C341.096 392.926 358.629 368.796 370.107 341.773C417.555 229.344 344.35 86.73 215.382 88.7183C86.2341 86.73 13.2098 229.344 60.4768 341.773Z" fill="white"/>
<path d="M217.283 87.3614V500.563H303.231C301.876 471.101 313.896 442.722 328.537 417.146C343.178 391.569 360.801 367.439 372.189 340.416C419.456 227.987 346.431 85.3731 217.283 87.3614Z" fill="#CEC1BC"/>
<path d="M61.7398 344.394C73.2176 371.507 90.7507 395.547 105.392 421.124C118.352 442.022 126.845 465.378 130.336 489.72C130.826 493.841 132.824 497.635 135.944 500.371C139.064 503.107 143.086 504.593 147.236 504.542H286.145C290.295 504.593 294.317 503.107 297.437 500.371C300.557 497.635 302.555 493.841 303.045 489.72C306.453 465.357 314.952 441.985 327.989 421.124C342.63 395.547 360.164 371.507 371.461 344.394C418.728 231.966 345.703 89.3511 216.555 91.3394C87.5875 89.3511 14.4728 231.966 61.7398 344.394Z" stroke="#732E54" stroke-width="18.0753" stroke-miterlimit="10"/>
<path d="M152.748 577.385H275.66V580.096C275.66 588.167 274.071 596.158 270.982 603.614C267.894 611.071 263.367 617.845 257.66 623.552C251.953 629.259 245.179 633.786 237.722 636.874C230.266 639.963 222.275 641.552 214.204 641.552C197.905 641.552 182.273 635.077 170.748 623.552C159.223 612.027 152.748 596.395 152.748 580.096V577.385Z" fill="url(#paint0_linear_187_300)"/>
<path d="M154.557 579.373H277.74V582.084C277.74 590.155 276.15 598.146 273.062 605.603C269.973 613.059 265.447 619.834 259.74 625.54C254.033 631.247 247.258 635.774 239.802 638.862C232.346 641.951 224.354 643.54 216.284 643.54C208.191 643.576 200.17 642.013 192.682 638.94C185.195 635.868 178.388 631.347 172.652 625.637C166.917 619.926 162.366 613.139 159.261 605.665C156.155 598.191 154.557 590.178 154.557 582.084V579.373Z" stroke="#732E54" stroke-width="18.0753" stroke-miterlimit="10"/>
<path d="M91.1172 579.102H338.388" stroke="#732E54" stroke-width="18.0753" stroke-miterlimit="10" stroke-linecap="round"/>
<path d="M135.035 543.855H282.891" stroke="#732E54" stroke-width="18.0753" stroke-miterlimit="10" stroke-linecap="round"/>
<path d="M391.885 135.263L425.324 115.019" stroke="#732E54" stroke-width="18.0753" stroke-miterlimit="10" stroke-linecap="round"/>
<path d="M43.3944 135.263L9.95508 115.019" stroke="#732E54" stroke-width="18.0753" stroke-miterlimit="10" stroke-linecap="round"/>
<path d="M217.283 500.564V426.997" stroke="#732E54" stroke-width="18.0753" stroke-miterlimit="10" stroke-linecap="round"/>
<path d="M249.361 380.815L233.455 402.958L217.548 425.1L201.732 402.958L185.826 380.815" stroke="#732E54" stroke-width="18.0753" stroke-miterlimit="10" stroke-linecap="round"/>
<path d="M322.477 331.833C320.027 338.586 317.004 345.117 313.439 351.354" stroke="white" stroke-width="9.03767" stroke-miterlimit="10" stroke-linecap="round"/>
<path opacity="0.3" d="M335.308 271.459C335.031 279.092 334.063 286.685 332.416 294.144" stroke="white" stroke-width="9.03767" stroke-miterlimit="10" stroke-linecap="round"/>
<path d="M270.697 143.396C287.178 152.365 301.541 164.769 312.814 179.768C324.087 194.768 332.007 212.013 336.04 230.338" stroke="white" stroke-width="9.03767" stroke-miterlimit="10" stroke-linecap="round"/>
<path opacity="0.7" d="M128.354 154.061C143.427 142.53 160.864 134.475 179.416 130.473C196.075 126.77 213.295 126.34 230.118 129.208" stroke="white" stroke-width="9.03767" stroke-miterlimit="10" stroke-linecap="round"/>
<path d="M101.143 195.271C110.772 177.803 124.246 162.753 140.547 151.258" stroke="white" stroke-width="18.0753" stroke-miterlimit="10" stroke-linecap="round"/>
<path d="M132.059 359.486C111.759 342.574 97.0168 319.947 89.7477 294.545C82.4786 269.143 83.019 242.143 91.2987 217.052" stroke="white" stroke-width="18.0753" stroke-miterlimit="10" stroke-linecap="round"/>
<path d="M576.982 420.977H593.096C602.048 446.693 612.79 468.34 625.322 485.918C638.018 503.333 651.771 516.273 666.582 524.736C681.556 533.2 697.181 537.432 713.457 537.432C733.802 537.432 751.217 531.084 765.703 518.389C780.189 505.693 787.432 489.417 787.432 469.561C787.432 451.006 782.63 436.602 773.027 426.348C763.424 415.931 751.95 408.688 738.604 404.619C725.257 400.387 707.679 396.481 685.869 392.9C664.059 389.32 648.597 385.983 639.482 382.891C625.322 378.008 613.278 371.335 603.35 362.871C593.421 354.245 585.853 343.991 580.645 332.109C575.599 320.065 573.076 307.207 573.076 293.535C573.076 280.514 575.355 267.982 579.912 255.938C584.469 243.893 590.898 233.232 599.199 223.955C607.5 214.678 617.591 207.354 629.473 201.982C641.517 196.611 654.863 193.926 669.512 193.926C680.091 193.926 693.031 195.472 708.33 198.564C723.792 201.494 735.023 202.959 742.021 202.959C750.811 202.959 759.111 201.006 766.924 197.1H785.479L795.977 297.441H778.887C762.936 267.493 746.172 244.707 728.594 229.082C711.178 213.294 690.671 205.4 667.07 205.4C655.352 205.4 644.447 208.167 634.355 213.701C624.264 219.072 616.126 226.559 609.941 236.162C603.919 245.765 600.908 256.344 600.908 267.9C600.908 284.176 606.442 296.628 617.51 305.254C628.577 313.88 644.935 320.391 666.582 324.785C688.392 329.18 707.842 332.923 724.932 336.016C742.184 339.108 755.856 343.096 765.947 347.979C784.502 357.093 798.906 369.707 809.16 385.82C819.414 401.934 824.541 420.163 824.541 440.508C824.541 460.039 819.821 478.268 810.381 495.195C800.941 512.122 787.676 525.713 770.586 535.967C753.496 546.058 734.453 551.104 713.457 551.104C701.576 551.104 692.624 550.208 686.602 548.418C680.579 546.628 670.244 543.128 655.596 537.92C640.947 532.712 629.717 530.107 621.904 530.107C608.883 530.107 598.548 535.072 590.898 545H576.982V420.977ZM769.121 263.018L761.064 216.387C755.693 218.177 750.322 219.072 744.951 219.072C739.092 219.072 732.744 218.177 725.908 216.387C732.419 220.618 738.115 225.339 742.998 230.547C747.881 235.755 753.008 242.021 758.379 249.346C763.75 256.67 767.331 261.227 769.121 263.018ZM585.039 466.387V531.572C589.759 525.387 594.072 521.4 597.979 519.609C602.048 517.819 608.232 517.087 616.533 517.412C611.162 511.064 607.256 506.426 604.814 503.496C602.536 500.404 599.606 495.928 596.025 490.068C592.607 484.046 588.945 476.152 585.039 466.387ZM585.039 264.971C582.272 277.34 580.889 287.35 580.889 295C580.889 303.626 582.354 312.334 585.283 321.123C588.213 329.749 592.526 337.969 598.223 345.781C603.919 353.431 610.348 359.697 617.51 364.58C627.113 371.09 637.692 375.729 649.248 378.496C660.804 381.1 677.65 384.274 699.785 388.018C722.083 391.598 737.464 395.098 745.928 398.516C761.553 404.212 773.678 412.92 782.305 424.639C791.094 436.357 795.488 450.111 795.488 465.898C795.488 477.617 792.152 489.987 785.479 503.008C798.825 489.173 805.498 472.979 805.498 454.424C805.498 435.218 800.534 420.163 790.605 409.258C780.84 398.19 768.633 390.052 753.984 384.844C739.499 379.473 719.642 374.59 694.414 370.195C669.186 365.638 656.247 363.278 655.596 363.115C632.484 357.093 614.906 346.676 602.861 331.865C590.98 317.054 585.039 299.964 585.039 280.596C585.039 277.015 584.958 274.004 584.795 271.562C584.795 269.121 584.876 266.924 585.039 264.971ZM885.82 485.918V347.002H859.697V334.551C874.02 323.809 884.762 315.589 891.924 309.893C899.085 304.033 905.84 297.523 912.188 290.361C918.698 283.2 924.232 275.713 928.789 267.9H941.729V331.621H1002.28V347.002H941.729V492.998C941.729 503.74 943.031 511.797 945.635 517.168C948.239 522.376 952.633 524.98 958.818 524.98C964.678 524.98 970.049 523.353 974.932 520.098C979.977 516.842 986.081 511.797 993.242 504.961L1002.28 514.482C990.068 527.015 978.838 536.374 968.584 542.559C958.493 548.581 946.855 551.592 933.672 551.592C921.139 551.592 911.374 548.825 904.375 543.291C897.376 537.757 892.493 530.27 889.727 520.83C887.122 511.227 885.82 499.59 885.82 485.918ZM909.746 305.498L893.633 318.926V481.035C893.633 502.682 896.4 518.47 901.934 528.398C907.63 538.164 917.721 543.047 932.207 543.047C939.857 543.047 947.507 541.826 955.156 539.385C940.345 539.873 929.033 536.455 921.221 529.131C913.571 521.644 909.746 509.274 909.746 492.021V305.498ZM1164.87 346.025V331.621H1252.28V497.881C1252.28 504.554 1253.41 509.518 1255.69 512.773C1258.13 516.029 1261.47 518.145 1265.7 519.121C1270.1 520.098 1275.96 520.586 1283.28 520.586H1285.48V534.502L1196.37 551.592V517.9C1169.51 540.361 1142.82 551.592 1116.29 551.592C1095.46 551.592 1078.85 545.407 1066.48 533.037C1054.11 520.667 1047.93 503.171 1047.93 480.547V395.586C1047.93 382.891 1047.52 373.857 1046.71 368.486C1045.9 363.115 1043.13 358.477 1038.41 354.57C1033.69 350.664 1025.88 347.816 1014.97 346.025V331.621H1104.33V475.908C1104.33 488.278 1105.38 498.288 1107.5 505.938C1109.78 513.587 1113.44 519.365 1118.49 523.271C1123.69 527.015 1130.45 528.887 1138.75 528.887C1156.82 528.887 1176.02 519.935 1196.37 502.031V385.088C1196.37 360.348 1185.87 347.327 1164.87 346.025ZM1220.29 513.506V382.402C1220.29 371.009 1218.75 361.976 1215.65 355.303C1212.56 348.467 1205.81 345.049 1195.39 345.049C1195.07 345.049 1193.84 345.212 1191.73 345.537C1189.61 345.863 1188.31 346.025 1187.82 346.025C1194.33 350.094 1198.73 355.221 1201.01 361.406C1203.28 367.428 1204.42 375.16 1204.42 384.6V539.385C1210.12 537.432 1214.19 534.583 1216.63 530.84C1219.07 526.934 1220.29 521.156 1220.29 513.506ZM1072.34 485.43V375.566C1072.34 355.221 1064.37 345.049 1048.42 345.049C1048.09 345.049 1046.71 345.212 1044.27 345.537C1041.83 345.863 1040.36 346.025 1039.87 346.025C1046.71 351.234 1051.1 356.849 1053.06 362.871C1055.01 368.893 1055.99 376.462 1055.99 385.576V475.908C1055.99 497.393 1061.11 514.238 1071.37 526.445C1081.78 538.49 1095.94 544.512 1113.85 544.512C1119.06 544.512 1124.1 544.186 1128.98 543.535C1110.59 542.07 1096.51 536.374 1086.75 526.445C1077.15 516.517 1072.34 502.845 1072.34 485.43ZM1447.1 221.514L1522.54 196.611H1532.55V501.055C1532.55 509.681 1534.83 515.54 1539.38 518.633C1544.1 521.562 1552.16 523.027 1563.55 523.027V535.967L1476.88 551.592V523.027C1453.28 542.07 1429.36 551.592 1405.11 551.592C1391.6 551.592 1378.98 548.743 1367.27 543.047C1355.55 537.35 1345.46 529.375 1336.99 519.121C1328.53 508.704 1322.02 496.823 1317.46 483.477C1313.07 469.967 1310.87 455.807 1310.87 440.996C1310.87 419.674 1315.91 400.306 1326.01 382.891C1336.26 365.475 1350.01 351.885 1367.27 342.119C1384.68 332.354 1404.05 327.471 1425.37 327.471C1440.51 327.471 1457.68 330.97 1476.88 337.969V277.91C1476.88 264.564 1475.18 254.798 1471.76 248.613C1468.5 242.428 1460.28 236.732 1447.1 231.523V221.514ZM1466.39 228.105H1458.09C1470.29 233.477 1477.78 239.336 1480.55 245.684C1483.48 251.868 1484.94 260.169 1484.94 270.586V539.385C1490.31 537.106 1494.22 534.421 1496.66 531.328C1499.26 528.236 1500.57 523.597 1500.57 517.412V271.074C1500.57 256.426 1498.37 245.602 1493.97 238.604C1489.58 231.605 1480.38 228.105 1466.39 228.105ZM1476.88 505.449V362.383C1471.19 355.547 1464.51 350.257 1456.87 346.514C1449.38 342.77 1441.73 340.898 1433.92 340.898C1422.36 340.898 1411.7 344.479 1401.93 351.641C1392.17 358.639 1384.44 369.3 1378.74 383.623C1373.21 397.783 1370.44 415.443 1370.44 436.602C1370.44 454.505 1372.96 470.049 1378.01 483.232C1383.05 496.253 1390.13 506.182 1399.25 513.018C1408.36 519.691 1418.78 523.027 1430.5 523.027C1447.26 523.027 1462.72 517.168 1476.88 505.449ZM1399.98 338.945C1386.31 341.875 1374.83 346.432 1365.56 352.617C1351.4 361.406 1340.08 374.02 1331.62 390.459C1323.16 406.898 1318.93 424.395 1318.93 442.949C1318.93 460.853 1322.59 477.536 1329.91 492.998C1337.4 508.298 1347.9 520.505 1361.41 529.619C1374.92 538.571 1389.97 543.047 1406.57 543.047C1417.97 543.047 1428.14 541.338 1437.09 537.92C1429.6 538.571 1424.88 538.896 1422.93 538.896C1412.19 538.896 1401.53 536.699 1390.95 532.305C1380.53 527.91 1371.01 521.481 1362.38 513.018C1353.76 504.391 1346.92 494.137 1341.88 482.256C1336.99 470.374 1334.55 457.435 1334.55 443.438C1334.55 399.98 1356.36 365.15 1399.98 338.945ZM1732.26 331.621H1816.48V344.072C1808.51 347.49 1801.75 351.722 1796.22 356.768C1790.69 361.65 1785.97 367.266 1782.06 373.613C1778.32 379.798 1774.17 387.936 1769.61 398.027C1765.21 407.956 1760.82 418.617 1756.43 430.01L1690.75 597.002C1673.17 642.412 1649.74 665.117 1620.44 665.117C1610.84 665.117 1602.54 662.432 1595.54 657.061C1588.7 651.852 1585.28 645.505 1585.28 638.018C1585.28 631.507 1587.97 626.055 1593.34 621.66C1598.87 617.266 1605.38 615.068 1612.87 615.068C1616.45 615.068 1620.36 615.964 1624.59 617.754C1628.98 619.544 1633.22 621.335 1637.29 623.125C1641.52 625.078 1645.34 626.055 1648.76 626.055C1659.5 626.055 1669.19 614.906 1677.81 592.607L1690.75 557.451L1617.27 386.553C1615.31 381.507 1613.12 376.38 1610.67 371.172C1608.4 365.801 1605.87 361.162 1603.11 357.256C1600.34 353.35 1596.84 350.257 1592.61 347.979C1588.38 345.537 1583.17 344.235 1576.98 344.072V331.621H1703.94V344.072C1693.84 344.723 1686.11 346.27 1680.74 348.711C1675.53 350.99 1672.93 355.547 1672.93 362.383C1672.93 369.382 1675.21 378.415 1679.77 389.482L1720.29 482.988L1750.81 408.037C1754.88 398.271 1756.91 387.773 1756.91 376.543C1756.91 358.314 1748.69 347.49 1732.26 344.072V331.621ZM1789.38 345.049H1750.81C1755.69 348.955 1758.95 353.024 1760.58 357.256C1762.37 361.325 1763.67 367.754 1764.48 376.543C1768.23 368.242 1771.89 361.895 1775.47 357.5C1779.05 352.943 1783.69 348.792 1789.38 345.049ZM1695.88 545L1703.94 525.469L1640.95 379.473C1636.23 368.405 1632.24 360.511 1628.98 355.791C1625.89 350.908 1622.15 347.572 1617.75 345.781C1613.52 343.991 1607.91 343.421 1600.91 344.072C1607.42 349.932 1611.81 355.14 1614.09 359.697C1616.53 364.255 1620.28 372.393 1625.32 384.111L1695.88 545ZM1628.98 657.549C1615.64 654.456 1608.96 648.109 1608.96 638.506C1608.96 632.484 1612.95 627.52 1620.93 623.613C1615.88 622.148 1612.38 621.416 1610.43 621.416C1605.38 621.416 1601.23 622.962 1597.98 626.055C1594.89 629.31 1593.34 633.135 1593.34 637.529C1593.34 644.04 1596.43 649.248 1602.62 653.154C1608.8 657.061 1617.59 658.525 1628.98 657.549Z" fill="white"/>
<path d="M108.4 857.8C106.267 857.533 104.733 856.733 103.8 855.4C103 854.067 102.667 852.733 102.8 851.4C102.8 849.8 103.333 848.467 104.4 847.4C105.467 846.333 107 845.8 109 845.8C111 845.933 113 846 115 846C117 846.133 119 846.2 121 846.2C129 846.2 136.067 845.6 142.2 844.4C148.467 843.2 153.4 841.067 157 838C160.6 834.933 162.4 830.6 162.4 825C162.4 821.267 161.4 818.6 159.4 817C157.533 815.267 155 814.2 151.8 813.8C148.733 813.267 145.333 813 141.6 813C136.667 813 131.6 813.267 126.4 813.8C121.333 814.2 116.067 814.4 110.6 814.4C99.4 814.4 89.2667 812.467 80.2 808.6C71.2667 804.733 64.1333 799.133 58.8 791.8C53.6 784.333 51 775.333 51 764.8C51 755.6 52.8667 747 56.6 739C60.3333 730.867 65.4667 723.8 72 717.8C78.5333 711.8 86.0667 707.133 94.6 703.8C103.133 700.333 112.2 698.6 121.8 698.6C132.333 698.6 143 700.533 153.8 704.4C164.6 708.267 175 713.867 185 721.2C185.933 721.867 186.533 722.667 186.8 723.6C187.2 724.533 187.4 725.467 187.4 726.4C187.4 727.733 187.067 728.933 186.4 730C185.067 732 183.4 733 181.4 733C180.333 733 179.267 732.6 178.2 731.8C169.267 725.533 159.933 720.6 150.2 717C140.467 713.4 130.933 711.6 121.6 711.6C114 711.6 106.733 713.067 99.8 716C93 718.8 86.9333 722.667 81.6 727.6C76.2667 732.4 72.0667 738 69 744.4C65.9333 750.667 64.4 757.267 64.4 764.2C64.4 773 66.6 780.267 71 786C75.4 791.6 81.4 795.733 89 798.4C96.7333 801.067 105.4 802.4 115 802.4C120.867 802.4 126.533 802.2 132 801.8C137.6 801.4 142.4 801.2 146.4 801.2C154.667 801.2 161.533 803.533 167 808.2C172.467 812.733 175.2 818.6 175.2 825.8C175.2 833.8 172.667 840.133 167.6 844.8C162.667 849.6 155.933 853 147.4 855C139 857 129.467 858 118.8 858C117.067 858 115.333 858 113.6 858C112 858 110.267 857.933 108.4 857.8ZM451.144 854C450.21 854 449.544 853.867 449.144 853.6C446.344 852.533 444.944 850.733 444.944 848.2C444.944 847.933 444.944 847.6 444.944 847.2C445.077 846.8 445.21 846.4 445.344 846C449.21 834.533 452.41 822.667 454.944 810.4C457.477 798.133 458.744 786.533 458.744 775.6C458.744 774.4 458.744 773.2 458.744 772C458.744 770.8 458.677 769.667 458.544 768.6C458.144 761 456.744 754 454.344 747.6C452.077 741.2 448.877 735.933 444.744 731.8C440.744 727.533 435.81 725.067 429.944 724.4C424.61 723.867 419.677 724.867 415.144 727.4C410.744 729.933 407.01 733.533 403.944 738.2C401.01 742.733 398.944 747.933 397.744 753.8C397.344 755.667 396.544 757.067 395.344 758C394.277 758.933 393.144 759.333 391.944 759.2C390.477 759.2 389.144 758.6 387.944 757.4C386.877 756.2 386.21 754.733 385.944 753C384.477 746.6 382.077 740.867 378.744 735.8C375.544 730.6 371.677 726.533 367.144 723.6C362.744 720.533 357.81 719 352.344 719C345.944 719 340.477 721.2 335.944 725.6C331.544 730 328.077 735.667 325.544 742.6C323.01 749.4 321.344 756.467 320.544 763.8C320.277 766.067 320.077 768.4 319.944 770.8C319.81 773.067 319.744 775.467 319.744 778C319.744 788.533 320.81 799.667 322.944 811.4C325.21 823.133 328.01 834.733 331.344 846.2C331.477 846.6 331.544 846.933 331.544 847.2C331.677 847.6 331.744 847.933 331.744 848.2C331.744 849.667 331.277 850.867 330.344 851.8C329.41 852.733 328.41 853.333 327.344 853.6C327.077 853.733 326.744 853.8 326.344 853.8C325.944 853.8 325.61 853.8 325.344 853.8C322.81 853.8 321.01 852.4 319.944 849.6C316.21 837.733 313.144 825.533 310.744 813C308.477 800.333 307.344 788.2 307.344 776.6C307.344 773.667 307.41 770.8 307.544 768C307.81 765.2 308.077 762.533 308.344 760C309.277 751.467 311.344 743.4 314.544 735.8C317.877 728.067 322.21 721.6 327.544 716.4C333.01 711.2 339.277 708.133 346.344 707.2C348.61 706.8 350.877 706.6 353.144 706.6C361.81 706.6 369.677 709.133 376.744 714.2C383.944 719.267 389.41 725.733 393.144 733.6C396.61 726.267 401.477 720.667 407.744 716.8C414.01 712.8 420.61 710.8 427.544 710.8C434.344 710.8 440.877 712.8 447.144 716.8C453.544 720.667 458.877 726.733 463.144 735C467.544 743.133 470.077 753.733 470.744 766.8C470.877 768 470.944 769.267 470.944 770.6C470.944 771.8 470.944 773.067 470.944 774.4C470.944 786.267 469.61 798.867 466.944 812.2C464.277 825.533 460.81 838.133 456.544 850C456.144 851.333 455.41 852.333 454.344 853C453.277 853.667 452.21 854 451.144 854ZM604.052 855.4C602.585 855.4 601.252 854.933 600.052 854C598.985 853.2 598.318 852 598.052 850.4C597.118 844 596.318 837.667 595.652 831.4C595.118 825 594.852 818.733 594.852 812.6C594.852 802.733 595.652 793.133 597.252 783.8C598.852 774.333 601.318 765.267 604.652 756.6C608.785 746.067 614.185 736.933 620.852 729.2C627.518 721.333 635.118 715.2 643.652 710.8C652.318 706.4 661.652 704.2 671.652 704.2C681.785 704.2 691.252 706.533 700.052 711.2C708.852 715.867 716.585 722.2 723.252 730.2C730.052 738.067 735.318 747 739.052 757C742.518 765.533 745.052 774.733 746.652 784.6C748.252 794.333 749.052 804.333 749.052 814.6C749.052 820.6 748.785 826.6 748.252 832.6C747.852 838.467 747.185 844.333 746.252 850.2C746.118 852.067 745.385 853.4 744.052 854.2C742.852 855 741.585 855.4 740.252 855.4C738.652 855.4 737.118 854.733 735.652 853.4C734.318 852.2 733.852 850.6 734.252 848.6C734.918 843.533 735.452 838.4 735.852 833.2C736.252 827.867 736.452 822.6 736.452 817.4C736.452 807.133 735.652 797.133 734.052 787.4C732.452 777.533 729.918 768.533 726.452 760.4C723.118 752.133 718.652 744.733 713.052 738.2C707.452 731.667 701.052 726.533 693.852 722.8C686.785 718.933 679.118 717 670.852 717C662.852 717 655.518 718.8 648.852 722.4C642.185 725.867 636.252 730.667 631.052 736.8C625.985 742.933 621.652 749.933 618.052 757.8C614.585 765.533 611.985 773.667 610.252 782.2H719.652C721.785 782.2 723.318 782.867 724.252 784.2C725.185 785.4 725.652 786.733 725.652 788.2C725.652 789.667 725.118 791.067 724.052 792.4C722.985 793.6 721.518 794.2 719.652 794.2H608.252C607.985 796.6 607.718 799.267 607.452 802.2C607.318 805.133 607.252 808.267 607.252 811.6C607.252 818 607.518 824.533 608.052 831.2C608.585 837.867 609.185 843.6 609.852 848.4C610.118 850.667 609.585 852.4 608.252 853.6C606.918 854.8 605.518 855.4 604.052 855.4ZM883.577 857.4C879.843 857.4 877.777 855.467 877.377 851.6L872.977 714.4C872.977 710.933 874.777 708.933 878.377 708.4C879.71 708.133 880.977 708.4 882.177 709.2C883.51 709.867 884.377 711.067 884.777 712.8C893.177 709.467 901.577 707 909.977 705.4C918.377 703.8 926.443 703 934.177 703C944.843 703 954.777 704.4 963.977 707.2C973.31 709.867 981.443 713.8 988.377 719C995.31 724.067 1000.71 730.2 1004.58 737.4C1008.44 744.467 1010.38 752.4 1010.38 761.2C1010.38 764.933 1009.98 768.8 1009.18 772.8C1008.51 776.667 1007.38 780.733 1005.78 785C1002.31 794.333 996.91 801.867 989.577 807.6C982.377 813.333 974.043 817.733 964.577 820.8L989.177 842.6C990.643 843.667 991.377 845.067 991.377 846.8C991.377 848.4 990.777 849.8 989.577 851C988.243 852.333 986.777 853 985.177 853C983.843 853 982.51 852.467 981.177 851.4L950.577 824.4C942.977 825.6 935.043 826.2 926.777 826.2C920.243 826.2 913.777 825.867 907.377 825.2C900.977 824.533 894.71 823.667 888.577 822.6L889.377 851.2C889.377 853.467 888.777 855.067 887.577 856C886.377 856.933 885.043 857.4 883.577 857.4ZM888.177 810.4C894.443 811.467 900.71 812.333 906.977 813C913.243 813.533 919.377 813.8 925.377 813.8C935.91 813.8 945.71 812.8 954.777 810.8C963.843 808.667 971.71 805.333 978.377 800.8C985.177 796.133 990.11 790 993.177 782.4C994.777 778.667 995.91 775.067 996.577 771.6C997.377 768.133 997.777 764.867 997.777 761.8C997.777 752.067 994.777 743.733 988.777 736.8C982.91 729.867 975.043 724.533 965.177 720.8C955.31 716.933 944.443 715 932.577 715C924.977 715 917.11 715.867 908.977 717.6C900.977 719.333 893.11 722 885.377 725.6L888.177 810.4ZM1200.9 855.6C1199.44 855.6 1198.04 855 1196.7 853.8C1195.5 852.733 1194.9 851.333 1194.9 849.6V723.4L1126.3 722C1124.3 722 1122.77 721.333 1121.7 720C1120.77 718.667 1120.3 717.333 1120.3 716C1120.7 712 1122.77 710 1126.5 710L1275.3 712.8C1277.04 712.8 1278.44 713.4 1279.5 714.6C1280.7 715.667 1281.3 717.133 1281.3 719C1281.3 720.733 1280.7 722.133 1279.5 723.2C1278.44 724.267 1276.97 724.8 1275.1 724.8L1206.9 723.6V849.6C1206.9 851.6 1206.24 853.067 1204.9 854C1203.7 855.067 1202.37 855.6 1200.9 855.6ZM1455.75 858.2C1453.75 858.2 1451.82 858.2 1449.95 858.2C1448.08 858.2 1446.35 858.133 1444.75 858C1435.28 857.333 1427.55 856 1421.55 854C1415.68 852 1411.08 848.933 1407.75 844.8C1404.55 840.8 1402.35 835.6 1401.15 829.2C1399.95 822.667 1399.35 814.733 1399.35 805.4C1399.35 797 1399.82 787.733 1400.75 777.6C1401.82 767.333 1403.15 756.667 1404.75 745.6C1406.35 734.4 1408.08 723.333 1409.95 712.4C1410.22 710.533 1410.88 709.267 1411.95 708.6C1413.15 707.933 1414.35 707.6 1415.55 707.6C1417.68 707.6 1419.35 708.267 1420.55 709.6C1421.75 710.8 1422.15 712.4 1421.75 714.4C1421.35 717.6 1420.75 722.133 1419.95 728C1419.15 733.733 1418.28 740.133 1417.35 747.2C1416.42 754.133 1415.48 761.067 1414.55 768C1413.75 774.8 1413.02 780.933 1412.35 786.4C1411.68 791.867 1411.28 795.933 1411.15 798.6C1411.15 800.2 1411.08 801.733 1410.95 803.2C1410.95 804.667 1410.95 806.133 1410.95 807.6C1410.95 817.067 1411.75 824.6 1413.35 830.2C1415.08 835.8 1418.28 839.8 1422.95 842.2C1427.75 844.733 1434.75 846.2 1443.95 846.6C1445.02 846.6 1446.08 846.6 1447.15 846.6C1448.22 846.733 1449.35 846.8 1450.55 846.8C1456.55 846.8 1463.55 846.533 1471.55 846C1479.55 845.467 1488.08 844.8 1497.15 844C1506.35 843.2 1515.55 842.4 1524.75 841.6C1526.88 841.333 1528.48 841.8 1529.55 843C1530.62 844.333 1531.22 845.667 1531.35 847C1531.75 851 1529.95 853.2 1525.95 853.6C1518.62 854.4 1510.75 855.133 1502.35 855.8C1494.08 856.467 1485.88 857 1477.75 857.4C1469.75 857.933 1462.42 858.2 1455.75 858.2ZM1716.21 857.6C1714.47 857.6 1713.01 857 1711.81 855.8C1710.74 854.733 1710.21 853.333 1710.21 851.6V816.2C1693.54 814.733 1679.47 808.867 1668.01 798.6C1656.54 788.333 1648.54 774.733 1644.01 757.8C1643.07 754.333 1642.41 750.6 1642.01 746.6C1641.61 742.467 1641.41 738.333 1641.41 734.2C1641.41 731 1641.54 727.867 1641.81 724.8C1642.07 721.6 1642.41 718.533 1642.81 715.6C1643.07 713.733 1643.74 712.4 1644.81 711.6C1646.01 710.8 1647.27 710.4 1648.61 710.4C1650.61 710.4 1652.21 711 1653.41 712.2C1654.61 713.267 1655.07 714.933 1654.81 717.2C1654.41 719.867 1654.14 722.6 1654.01 725.4C1653.87 728.067 1653.81 730.733 1653.81 733.4C1653.81 741.267 1654.61 748.733 1656.21 755.8C1659.01 765.933 1663.27 774.667 1669.01 782C1674.87 789.333 1681.87 795 1690.01 799C1698.14 802.867 1707.07 804.8 1716.81 804.8C1726.67 804.8 1735.61 802.8 1743.61 798.8C1751.74 794.667 1758.61 788.933 1764.21 781.6C1769.94 774.133 1774.07 765.4 1776.61 755.4C1777.41 752.067 1777.94 748.8 1778.21 745.6C1778.61 742.4 1778.81 739.2 1778.81 736C1778.81 732.8 1778.67 729.667 1778.41 726.6C1778.14 723.4 1777.74 720.267 1777.21 717.2C1777.07 714.667 1777.61 712.933 1778.81 712C1780.14 710.933 1781.54 710.4 1783.01 710.4C1784.34 710.4 1785.61 710.867 1786.81 711.8C1788.01 712.6 1788.81 713.8 1789.21 715.4C1789.74 718.733 1790.07 722.133 1790.21 725.6C1790.47 728.933 1790.61 732.333 1790.61 735.8C1790.61 739.533 1790.41 743.267 1790.01 747C1789.74 750.6 1789.21 754.133 1788.41 757.6C1784.27 774.8 1776.34 788.533 1764.61 798.8C1753.01 809.067 1738.87 814.867 1722.21 816.2V851.6C1722.21 853.733 1721.54 855.267 1720.21 856.2C1719.01 857.133 1717.67 857.6 1716.21 857.6Z" fill="white"/>
<defs>
<linearGradient id="paint0_linear_187_300" x1="152.748" y1="609.468" x2="275.66" y2="609.468" gradientUnits="userSpaceOnUse">
<stop offset="0.04" stop-color="#F27B40"/>
<stop offset="1" stop-color="#EC697D"/>
</linearGradient>
</defs>
</svg>
